<svg id="Primary_Dark" data-name="Primary Dark" xmlns="http://www.w3.org/2000/svg" xmlns:xlink="http://www.w3.org/1999/xlink" viewBox="0 0 1257.94 223.03"><defs><style>.cls-1{fill:#1041fb;}.cls-2{fill:url(#linear-gradient);}</style><linearGradient id="linear-gradient" x1="527.08" y1="432.13" x2="367.28" y2="591.94" gradientTransform="translate(50.56 -39.02) rotate(5.44)" gradientUnits="userSpaceOnUse"><stop offset="0" stop-color="#1041fb"/><stop offset="0.16" stop-color="#1040f7"/><stop offset="0.32" stop-color="#113ceb"/><stop offset="0.48" stop-color="#1336d6"/><stop offset="0.65" stop-color="#152db9"/><stop offset="0.81" stop-color="#182294"/><stop offset="0.98" stop-color="#1b1567"/><stop offset="0.99" stop-color="#1b1464"/></linearGradient></defs><title>Enigma_Main</title><path class="cls-1" d="M629.84,468.17v30.54h71.42V532H629.84V562.5h71v33.24h-106V434.93h106v33.24Z" transform="translate(-335.38 -401.89)"/><path class="cls-1" d="M746.73,434.93h40.43l58,99.27h2.24l-2.24-31V434.93H879.7V595.74H842.86L781.32,490.63h-2.24l2.24,31v74.12H746.73Z" transform="translate(-335.38 -401.89)"/><path class="cls-1" d="M926.1,434.93h35V595.74h-35Z" transform="translate(-335.38 -401.89)"/><path class="cls-1" d="M1094.15,506.35h79.28a65.57,65.57,0,0,1,1.24,7,62.93,62.93,0,0,1,.56,8.09q0,17.07-4.94,30.32a69.46,69.46,0,0,1-14.38,23.36,75.19,75.19,0,0,1-26.05,17.85q-15.28,6.41-34.82,6.4a87.78,87.78,0,0,1-33.12-6.28,85.35,85.35,0,0,1-27.29-17.41,81,81,0,0,1-18.42-26.5,88.15,88.15,0,0,1,0-67.61,81,81,0,0,1,18.42-26.5,85.35,85.35,0,0,1,27.29-17.41,87.79,87.79,0,0,1,33.12-6.29q20.45,0,35.6,7a85.09,85.09,0,0,1,26.62,19.09l-23.81,23.35a59.56,59.56,0,0,0-16.73-12q-8.88-4.16-22.13-4.16a51,51,0,0,0-19.42,3.71,49.71,49.71,0,0,0-16,10.33,47.67,47.67,0,0,0-10.78,15.95,56.88,56.88,0,0,0,0,41.55,46.83,46.83,0,0,0,10.89,15.95,50.7,50.7,0,0,0,16.17,10.33,52.47,52.47,0,0,0,19.77,3.7q20.65,0,33-11a40.53,40.53,0,0,0,7.07-8.42,49.31,49.31,0,0,0,5.28-11.12h-46.49Z" transform="translate(-335.38 -401.89)"/><path class="cls-1" d="M1224.47,434.93h34.59l45.82,78.61h2.25L1353,434.93h34.59V595.74H1353v-71.2l2.24-26.95H1353l-36.61,64h-20.67l-36.61-64h-2.24l2.24,26.95v71.2h-34.59Z" transform="translate(-335.38 -401.89)"/><path class="cls-1" d="M1492.7,434.93h40.43l60.19,160.81h-38.63l-12.36-35.94h-58.84l-12.35,35.94h-38.63Zm38.41,93-11.69-33.69L1514,474.45h-2.25l-5.39,19.77-11.68,33.69Z" transform="translate(-335.38 -401.89)"/><path class="cls-2" d="M527.23,433.26a108.76,108.76,0,0,0-65.5-31.37,25.25,25.25,0,0,1-5.15,28.68l-22.69,22.64a22,22,0,0,0-.36,31.16l42.38,42.48a22,22,0,0,0,31.15-.3l22.7-22.64a25.26,25.26,0,0,1,28.69-5.08A108.76,108.76,0,0,0,527.23,433.26ZM477.08,508,454.84,485.7a5.74,5.74,0,0,1,.09-8.1l42.22-42.11,22.24,22.3a5.72,5.72,0,0,1-.09,8.08Zm80.75,19.49-16.92,16.88c-28.52,28.45-74.23,28.88-102.09.95L415,521.39c-27.85-27.92-27.31-73.6,1.19-102l16.94-16.9a114.05,114.05,0,0,0-64,32.28c-44.19,44.09-45,114.9-1.84,158.17s114,42.61,158.16-1.48A114.11,114.11,0,0,0,557.83,527.48Z" transform="translate(-335.38 -401.89)"/></svg>