<svg id="Primary_Dark" data-name="Primary Dark" xmlns="http://www.w3.org/2000/svg" xmlns:xlink="http://www.w3.org/1999/xlink" viewBox="0 0 282.61 50.11"><defs><style>.cls-1{fill:#1041fb;}.cls-2{fill:url(#linear-gradient);}</style><linearGradient id="linear-gradient" x1="75.94" y1="117.05" x2="40.04" y2="152.95" gradientTransform="translate(50.56 -39.02) rotate(5.44)" gradientUnits="userSpaceOnUse"><stop offset="0" stop-color="#1041fb"/><stop offset="0.16" stop-color="#1040f7"/><stop offset="0.32" stop-color="#113ceb"/><stop offset="0.48" stop-color="#1336d6"/><stop offset="0.65" stop-color="#152db9"/><stop offset="0.81" stop-color="#182294"/><stop offset="0.98" stop-color="#1b1567"/><stop offset="0.99" stop-color="#1b1464"/></linearGradient></defs><title>Enigma_Main1</title><path class="cls-1" d="M136.53,90.78v6.87h16.05v7.46H136.53V112h15.95v7.46H128.66V83.32h23.82v7.46Z" transform="translate(-70.38 -75.89)"/><path class="cls-1" d="M162.79,83.32h9.09l13,22.3h.5l-.5-7V83.32h7.77v36.12h-8.28L170.57,95.83h-.51l.51,7v16.65h-7.78Z" transform="translate(-70.38 -75.89)"/><path class="cls-1" d="M203.09,83.32H211v36.12h-7.87Z" transform="translate(-70.38 -75.89)"/><path class="cls-1" d="M240.84,99.36h17.82a14.26,14.26,0,0,1,.27,1.57,12.85,12.85,0,0,1,.13,1.81,19.38,19.38,0,0,1-1.11,6.81,15.56,15.56,0,0,1-3.23,5.25,16.86,16.86,0,0,1-5.85,4,20.08,20.08,0,0,1-7.82,1.44,19.78,19.78,0,0,1-7.45-1.41,19.24,19.24,0,0,1-6.13-3.91,18,18,0,0,1-4.13-6,19.71,19.71,0,0,1,0-15.18,18,18,0,0,1,4.13-6,19.24,19.24,0,0,1,6.13-3.91,19.78,19.78,0,0,1,7.45-1.41,18.19,18.19,0,0,1,14,5.85l-5.35,5.25a13.22,13.22,0,0,0-3.75-2.7,11.76,11.76,0,0,0-5-.93,11.37,11.37,0,0,0-4.37.83A11.05,11.05,0,0,0,233,93.13a10.54,10.54,0,0,0-2.42,3.58,12.7,12.7,0,0,0,0,9.34,10.45,10.45,0,0,0,2.44,3.58,11.43,11.43,0,0,0,3.64,2.32,11.62,11.62,0,0,0,4.44.83,10.72,10.72,0,0,0,7.41-2.47,8.37,8.37,0,0,0,1.59-1.89,10.87,10.87,0,0,0,1.19-2.5H240.84Z" transform="translate(-70.38 -75.89)"/><path class="cls-1" d="M270.12,83.32h7.77L288.19,101h.5L299,83.32h7.77v36.12H299v-16l.5-6.06H299l-8.23,14.38h-4.64l-8.23-14.38h-.5l.5,6.06v16h-7.77Z" transform="translate(-70.38 -75.89)"/><path class="cls-1" d="M330.38,83.32h9.09L353,119.44h-8.68l-2.77-8.07H328.32l-2.78,8.07h-8.68ZM339,104.21l-2.62-7.57-1.21-4.44h-.51l-1.21,4.44-2.62,7.57Z" transform="translate(-70.38 -75.89)"/><path class="cls-2" d="M113.48,82.94a24.43,24.43,0,0,0-14.71-7,5.69,5.69,0,0,1-1.16,6.45l-5.1,5.08a5,5,0,0,0-.08,7L102,104a5,5,0,0,0,7-.07l5.1-5.09a5.68,5.68,0,0,1,6.44-1.14A24.4,24.4,0,0,0,113.48,82.94ZM102.21,99.73l-5-5a1.28,1.28,0,0,1,0-1.82l9.48-9.46,5,5a1.29,1.29,0,0,1,0,1.82Zm18.14,4.38-3.8,3.79a16.21,16.21,0,0,1-22.93.21l-5.36-5.37a16.21,16.21,0,0,1,.26-22.92L92.33,76A25.59,25.59,0,0,0,78,83.27c-9.93,9.91-10.12,25.81-.42,35.54s25.61,9.57,35.54-.34A25.55,25.55,0,0,0,120.35,104.11Z" transform="translate(-70.38 -75.89)"/></svg>